# xmcd
#
# Track frame offsets:
#	150
#	19178
#	46890
#	71061
#	91691
#	108203
#	125730
#	139291
#	162446
#	179799
#	195587
#	223118
#	243367
#	257120
#
# Disc length: 3672 seconds
#
# Revision: 1
# Processed by: cddbd v1.5.2PL0 Copyright (c) Steve Scherf et al.
# Submitted via: audiograbber 1.83.01
#
DISCID=d00e560e
DTITLE=Various Artist - A Tribute To Sea Shepherd - For The Ocean
DYEAR=2014
DGENRE=Metal
TTITLE0=Bodyguerra - Think It Over
TTITLE1=Ayscobe - The Ocean
TTITLE2=Domain - Burning Red
TTITLE3=Sapiency - Tomorrow
TTITLE4=Inner Sanctum - Agent Of Chaos
TTITLE5=Shanghai Guns - Long Way Hard Decision
TTITLE6=Peoples Temper - Monumental
TTITLE7=Siren's Legacy - Ghostship
TTITLE8=Krautalarm - Kontinent Plastik
TTITLE9=Die Apokalyptischen Reiter - Freiheit Gleichheit Brüderlichkeit
TTITLE10=Debauchery - Kings Of Carnage
TTITLE11=Bleeding Red - Nameless
TTITLE12=Neurotox - Wir klagen an
TTITLE13=Zaragon - Raindrops
EXTD=
EXTT0=
EXTT1=
EXTT2=
EXTT3=
EXTT4=
EXTT5=
EXTT6=
EXTT7=
EXTT8=
EXTT9=
EXTT10=
EXTT11=
EXTT12=
EXTT13=
PLAYORDER=
